<svg viewBox="0 0 24 24" fill="none" xmlns="http://www.w3.org/2000/svg">
  <!-- JSON 格式化图标 - 花括号 + 格式化线条 -->
  <!-- 左花括号 -->
  <path d="M8 4C6.5 4 5.5 5 5.5 6.5V10C5.5 11 5 11.5 4 11.5V12.5C5 12.5 5.5 13 5.5 14V17.5C5.5 19 6.5 20 8 20" stroke="#667eea" stroke-width="2" stroke-linecap="round" stroke-linejoin="round"/>
  <!-- 右花括号 -->
  <path d="M16 4C17.5 4 18.5 5 18.5 6.5V10C18.5 11 19 11.5 20 11.5V12.5C19 12.5 18.5 13 18.5 14V17.5C18.5 19 17.5 20 16 20" stroke="#667eea" stroke-width="2" stroke-linecap="round" stroke-linejoin="round"/>
  <!-- 格式化线条 -->
  <line x1="9" y1="9" x2="15" y2="9" stroke="#667eea" stroke-width="1.5" stroke-linecap="round"/>
  <line x1="9" y1="12" x2="13" y2="12" stroke="#667eea" stroke-width="1.5" stroke-linecap="round"/>
  <line x1="9" y1="15" x2="15" y2="15" stroke="#667eea" stroke-width="1.5" stroke-linecap="round"/>
</svg>
