<svg viewBox="0 0 24 24" fill="none" xmlns="http://www.w3.org/2000/svg">
  <path d="M12 2C6.48 2 2 6.48 2 12C2 17.52 6.48 22 12 22C12.55 22 13 21.55 13 21C13 20.72 12.89 20.47 12.71 20.29C12.53 20.11 12.44 19.86 12.44 19.58C12.44 19.03 12.89 18.58 13.44 18.58H15.5C18.54 18.58 21 16.12 21 13.08C21 7.01 17.02 2 12 2Z" stroke="#667eea" stroke-width="2"/>
  <circle cx="7.5" cy="11.5" r="1.5" fill="#667eea"/>
  <circle cx="10.5" cy="7.5" r="1.5" fill="#667eea"/>
  <circle cx="14.5" cy="7.5" r="1.5" fill="#667eea"/>
  <circle cx="17.5" cy="11.5" r="1.5" fill="#667eea"/>
</svg>