<svg xmlns="http://www.w3.org/2000/svg" width="24" height="24" viewBox="0 0 24 24" fill="none">
  <!-- 番茄身体 -->
  <path d="M12 21C7.02944 21 3 16.9706 3 12C3 7.02944 7.02944 3 12 3C16.9706 3 21 7.02944 21 12C21 16.9706 16.9706 21 12 21Z" stroke="#667eea" stroke-width="2" stroke-linecap="round" stroke-linejoin="round"/>
  <!-- 番茄顶部叶子 -->
  <path d="M12 3C12 3 10 1 8 2C6 3 8 5 8 5" stroke="#667eea" stroke-width="1.5" stroke-linecap="round" stroke-linejoin="round"/>
  <path d="M12 3C12 3 14 1 16 2C18 3 16 5 16 5" stroke="#667eea" stroke-width="1.5" stroke-linecap="round" stroke-linejoin="round"/>
  <!-- 时钟指针 -->
  <path d="M12 7V12L15 14" stroke="#667eea" stroke-width="2" stroke-linecap="round" stroke-linejoin="round"/>
</svg>
