<svg viewBox="0 0 24 24" fill="none" xmlns="http://www.w3.org/2000/svg">
  <!-- 标签外框 -->
  <path d="M4 5C4 3.9 4.9 3 6 3H18C19.1 3 20 3.9 20 5V19C20 20.1 19.1 21 18 21H6C4.9 21 4 20.1 4 19V5Z" stroke="#667eea" stroke-width="2"/>
  <!-- 吊孔 -->
  <circle cx="12" cy="5.5" r="1.5" stroke="#667eea" stroke-width="1.5"/>
  <!-- 尺码文字 S -->
  <path d="M8 11.5C8 10.5 8.5 10 9.5 10C10.5 10 11 10.5 11 11C11 11.5 10.5 11.5 10 11.5H9.5C9 11.5 8 12 8 13C8 13.5 8.5 14 9.5 14C10.5 14 11 13.5 11 12.5" stroke="#667eea" stroke-width="1.5" stroke-linecap="round" stroke-linejoin="round"/>
  <!-- 分隔线 -->
  <line x1="12" y1="10" x2="12" y2="14" stroke="#667eea" stroke-width="1.5" stroke-linecap="round"/>
  <!-- 尺码文字 L -->
  <path d="M14 10V14H17" stroke="#667eea" stroke-width="1.5" stroke-linecap="round" stroke-linejoin="round"/>
  <!-- 底部刻度 -->
  <line x1="6" y1="17" x2="18" y2="17" stroke="#667eea" stroke-width="1.5" stroke-linecap="round"/>
  <line x1="8" y1="17" x2="8" y2="18.5" stroke="#667eea" stroke-width="1.5" stroke-linecap="round"/>
  <line x1="12" y1="17" x2="12" y2="18.5" stroke="#667eea" stroke-width="1.5" stroke-linecap="round"/>
  <line x1="16" y1="17" x2="16" y2="18.5" stroke="#667eea" stroke-width="1.5" stroke-linecap="round"/>
</svg>
