<svg xmlns="http://www.w3.org/2000/svg" viewBox="0 0 48 48" fill="none">
  <defs>
    <linearGradient id="party-grad" x1="0%" y1="0%" x2="100%" y2="100%">
      <stop offset="0%" style="stop-color:#f093fb"/>
      <stop offset="100%" style="stop-color:#f5576c"/>
    </linearGradient>
    <linearGradient id="confetti1" x1="0%" y1="0%" x2="100%" y2="100%">
      <stop offset="0%" style="stop-color:#667eea"/>
      <stop offset="100%" style="stop-color:#764ba2"/>
    </linearGradient>
    <linearGradient id="confetti2" x1="0%" y1="0%" x2="100%" y2="100%">
      <stop offset="0%" style="stop-color:#f7971e"/>
      <stop offset="100%" style="stop-color:#ffd200"/>
    </linearGradient>
  </defs>
  <path d="M24 4L26.5 14H37L28.5 20.5L31 31L24 24.5L17 31L19.5 20.5L11 14H21.5L24 4Z" fill="url(#party-grad)"/>
  <rect x="6" y="8" width="4" height="8" rx="2" fill="url(#confetti1)" transform="rotate(-15 6 8)"/>
  <rect x="38" y="10" width="4" height="8" rx="2" fill="url(#confetti2)" transform="rotate(20 38 10)"/>
  <circle cx="10" cy="32" r="3" fill="url(#confetti2)"/>
  <circle cx="38" cy="34" r="2.5" fill="url(#confetti1)"/>
  <rect x="14" y="38" width="6" height="3" rx="1.5" fill="url(#party-grad)" transform="rotate(-10 14 38)"/>
  <rect x="30" y="40" width="5" height="3" rx="1.5" fill="url(#confetti1)" transform="rotate(15 30 40)"/>
  <circle cx="20" cy="44" r="2" fill="url(#confetti2)"/>
</svg>
