<svg xmlns="http://www.w3.org/2000/svg" viewBox="0 0 48 48" fill="none">
  <defs>
    <linearGradient id="lunch-grad" x1="0%" y1="0%" x2="100%" y2="100%">
      <stop offset="0%" style="stop-color:#f7971e"/>
      <stop offset="100%" style="stop-color:#ffd200"/>
    </linearGradient>
  </defs>
  <rect x="6" y="16" width="36" height="26" rx="4" fill="url(#lunch-grad)"/>
  <rect x="6" y="16" width="36" height="8" rx="4" fill="white" fill-opacity="0.3"/>
  <line x1="18" y1="16" x2="18" y2="42" stroke="white" stroke-opacity="0.2" stroke-width="2"/>
  <line x1="30" y1="16" x2="30" y2="42" stroke="white" stroke-opacity="0.2" stroke-width="2"/>
  <circle cx="12" cy="28" r="3" fill="white"/>
  <circle cx="24" cy="32" r="4" fill="white"/>
  <rect x="33" y="26" width="6" height="10" rx="2" fill="white"/>
  <path d="M20 8C20 8 22 12 24 12C26 12 28 8 28 8" stroke="url(#lunch-grad)" stroke-width="2" stroke-linecap="round"/>
  <path d="M16 6C16 6 18 10 20 10" stroke="url(#lunch-grad)" stroke-width="2" stroke-linecap="round"/>
  <path d="M32 6C32 6 30 10 28 10" stroke="url(#lunch-grad)" stroke-width="2" stroke-linecap="round"/>
</svg>
