<?xml version="1.0" encoding="UTF-8"?>
<svg width="200" height="200" viewBox="0 0 200 200" xmlns="http://www.w3.org/2000/svg">
  <defs>
    <linearGradient id="qr-grad" x1="0%" y1="0%" x2="100%" y2="100%">
      <stop offset="0%" stop-color="#667eea"/>
      <stop offset="100%" stop-color="#764ba2"/>
    </linearGradient>
  </defs>
  <rect width="200" height="200" fill="white"/>
  <rect x="10" y="10" width="180" height="180" rx="10" fill="none" stroke="url(#qr-grad)" stroke-width="2"/>

  <!-- QR Code pattern simulation -->
  <g fill="url(#qr-grad)">
    <!-- Top-left position marker -->
    <rect x="20" y="20" width="40" height="40"/>
    <rect x="25" y="25" width="30" height="30" fill="white"/>
    <rect x="30" y="30" width="20" height="20"/>

    <!-- Top-right position marker -->
    <rect x="140" y="20" width="40" height="40"/>
    <rect x="145" y="25" width="30" height="30" fill="white"/>
    <rect x="150" y="30" width="20" height="20"/>

    <!-- Bottom-left position marker -->
    <rect x="20" y="140" width="40" height="40"/>
    <rect x="25" y="145" width="30" height="30" fill="white"/>
    <rect x="30" y="150" width="20" height="20"/>

    <!-- Data modules -->
    <rect x="70" y="20" width="10" height="10"/>
    <rect x="90" y="20" width="10" height="10"/>
    <rect x="110" y="20" width="10" height="10"/>
    <rect x="70" y="40" width="10" height="10"/>
    <rect x="100" y="40" width="10" height="10"/>
    <rect x="120" y="40" width="10" height="10"/>

    <rect x="20" y="70" width="10" height="10"/>
    <rect x="40" y="70" width="10" height="10"/>
    <rect x="20" y="90" width="10" height="10"/>
    <rect x="30" y="100" width="10" height="10"/>
    <rect x="50" y="90" width="10" height="10"/>
    <rect x="20" y="110" width="10" height="10"/>
    <rect x="40" y="120" width="10" height="10"/>

    <rect x="70" y="70" width="10" height="10"/>
    <rect x="90" y="80" width="10" height="10"/>
    <rect x="110" y="70" width="10" height="10"/>
    <rect x="80" y="100" width="10" height="10"/>
    <rect x="100" y="110" width="10" height="10"/>
    <rect x="120" y="90" width="10" height="10"/>

    <rect x="140" y="70" width="10" height="10"/>
    <rect x="160" y="80" width="10" height="10"/>
    <rect x="170" y="100" width="10" height="10"/>
    <rect x="150" y="110" width="10" height="10"/>
    <rect x="140" y="130" width="10" height="10"/>
    <rect x="170" y="120" width="10" height="10"/>

    <rect x="70" y="140" width="10" height="10"/>
    <rect x="90" y="150" width="10" height="10"/>
    <rect x="110" y="140" width="10" height="10"/>
    <rect x="80" y="170" width="10" height="10"/>
    <rect x="100" y="160" width="10" height="10"/>
    <rect x="120" y="170" width="10" height="10"/>
  </g>

  <!-- Center logo -->
  <circle cx="100" cy="100" r="20" fill="white"/>
  <circle cx="100" cy="100" r="16" fill="url(#qr-grad)"/>
  <text x="100" y="105" text-anchor="middle" fill="white" font-size="12" font-weight="bold">EH</text>
</svg>
